<svg id="381d9aa6-761a-4301-976f-a1c3f9a3b377" data-name="Layer 1" xmlns="http://www.w3.org/2000/svg" viewBox="0 0 66.7 17.3"><defs><style>.\35 9a36b4c-7595-4bd9-a378-c87c762e4a20{fill:#2b3cd8;}.\32 f3916c5-ac34-41ee-984d-f49ae51002ba{fill:#fff;}.b4363601-be54-4e94-adae-8240d837b000{fill:#dbdbdb;}</style></defs><title>Ibac</title><path class="59a36b4c-7595-4bd9-a378-c87c762e4a20" d="M799.2,250.1v13a2.1,2.1,0,0,1-2.1,2.1h-13l-1-.3a2.1,2.1,0,0,1-1.1-1.6V250.1a2.1,2.1,0,0,1,2.1-2.1h13A2.1,2.1,0,0,1,799.2,250.1Z" transform="translate(-782 -248)"/><path d="M810.9,251.9a1.6,1.6,0,0,1-.5-1.2,1.6,1.6,0,0,1,.5-1.2,1.6,1.6,0,0,1,1.2-.5,1.6,1.6,0,0,1,1.6,1.6,1.6,1.6,0,0,1-.5,1.2,1.6,1.6,0,0,1-1.2.5A1.6,1.6,0,0,1,810.9,251.9Zm-.1,1.6h2.5v9.9h-2.5Z" transform="translate(-782 -248)"/><path d="M816.4,249.4h5.4a4.8,4.8,0,0,1,2.1.5,3.9,3.9,0,0,1,1.5,1.3,3.3,3.3,0,0,1,0,3.6,3.4,3.4,0,0,1-1.3,1.2v.2a3.6,3.6,0,0,1,1.7,1.2,3.3,3.3,0,0,1,.6,2,3.5,3.5,0,0,1-.6,2,4,4,0,0,1-1.6,1.4,5.5,5.5,0,0,1-2.3.5h-5.6Zm5.2,5.7a1.9,1.9,0,0,0,1.4-.5,1.6,1.6,0,0,0,0-2.4,1.8,1.8,0,0,0-1.3-.5H819v3.3Zm.3,5.8a2.1,2.1,0,0,0,1.5-.5,1.7,1.7,0,0,0,.5-1.3,1.7,1.7,0,0,0-.5-1.3,2.2,2.2,0,0,0-1.6-.5H819V261Z" transform="translate(-782 -248)"/><path d="M829,262.7a3.1,3.1,0,0,1-1-2.4,3,3,0,0,1,.5-1.7,3.4,3.4,0,0,1,1.4-1.2,4.9,4.9,0,0,1,2-.4,6.9,6.9,0,0,1,2.6.4V257a1.6,1.6,0,0,0-.6-1.3,2.5,2.5,0,0,0-1.6-.5,3,3,0,0,0-1.3.3,3.2,3.2,0,0,0-1.1.8l-1.6-1.3a4.8,4.8,0,0,1,1.8-1.4,5.6,5.6,0,0,1,2.4-.5,5.1,5.1,0,0,1,3.5,1,3.9,3.9,0,0,1,1.2,3.1v6.1h-2.5v-1h-.2a3.4,3.4,0,0,1-1.2,1,4,4,0,0,1-4.3-.6ZM834,261a2.4,2.4,0,0,0,.7-1.7,4.8,4.8,0,0,0-2.1-.5q-2,0-2,1.5a1.2,1.2,0,0,0,.4,1,1.8,1.8,0,0,0,1.2.4A2.3,2.3,0,0,0,834,261Z" transform="translate(-782 -248)"/><path d="M841.3,263a4.8,4.8,0,0,1-1.9-1.9,5.5,5.5,0,0,1-.7-2.7,5.4,5.4,0,0,1,.7-2.7,4.9,4.9,0,0,1,1.9-1.9,5.3,5.3,0,0,1,2.7-.7,5.4,5.4,0,0,1,2.8.7,4,4,0,0,1,1.7,2l-2.3,1a2.2,2.2,0,0,0-2.2-1.3,2.5,2.5,0,0,0-1.9.8,3.3,3.3,0,0,0,0,4.2,2.5,2.5,0,0,0,1.9.8,2.4,2.4,0,0,0,2.3-1.4l2.3,1a4.8,4.8,0,0,1-1.8,2,5.8,5.8,0,0,1-5.5,0Z" transform="translate(-782 -248)"/><path class="2f3916c5-ac34-41ee-984d-f49ae51002ba" d="M795.1,259a2.8,2.8,0,0,1-.5,1.6,3.2,3.2,0,0,1-1.3,1.1,4.4,4.4,0,0,1-1.8.4h-3.6a.8.8,0,0,1-.8-.8v-9.3a.8.8,0,0,1,.8-.8h3.5a3.8,3.8,0,0,1,1.7.4,3.2,3.2,0,0,1,1.2,1,2.7,2.7,0,0,1,0,2.9v.2a2.7,2.7,0,0,1-.9.8h0a2.9,2.9,0,0,1,1.4,1A2.6,2.6,0,0,1,795.1,259Z" transform="translate(-782 -248)"/><path class="b4363601-be54-4e94-adae-8240d837b000" d="M793.9,255.5l-3-.8h0l-3.9-1.1v1.1l1.3.4,4.9,1.3h0a2.7,2.7,0,0,0,.9-.8Z" transform="translate(-782 -248)"/></svg>